# xmcd
#
# Track frame offsets: 
#        150
#        10405
#        22712
#        32772
#        44345
#        55372
#        67831
#        77507
#        87990
#        99742
#        112971
#        124288
#        136768
#        148077
#        157619
#        167885
#
# Disc length: 2373 seconds
#
# Revision: 0
# Processed by: cddbd v1.5.2PL0 Copyright (c) Steve Scherf et al.
# Submitted via: ExactAudioCopyFreeDBPlugin 1.0
#
DISCID=c5094310
DTITLE=Hank Thompson - Most Of All - CD 3
DYEAR=2008
DGENRE=Country
TTITLE0=Wake Up, Irene
TTITLE1=Breakin' The Rules
TTITLE2=A Fooler, A Faker
TTITLE3=Go Cry Your Heart Out
TTITLE4=Honky-Tonk Girl
TTITLE5=We've Gone Too Far
TTITLE6=The New Green Light
TTITLE7=If Lovin' You Is Wrong
TTITLE8=Annie Over
TTITLE9=Wildwood Flower
TTITLE10=Breakin' In Another Heart
TTITLE11=Most Of All
TTITLE12=Don't Take It Out On Me
TTITLE13=Honey, Honey Bee Ball
TTITLE14=I'm Not Mad, Just Hurt
TTITLE15=The Blackboard Of My Heart
EXTD=
EXTT0=
EXTT1=
EXTT2=
EXTT3=
EXTT4=
EXTT5=
EXTT6=
EXTT7=
EXTT8=
EXTT9=
EXTT10=
EXTT11=
EXTT12=
EXTT13=
EXTT14=
EXTT15=
PLAYORDER=
